<?xml version="1.0" encoding="utf-8"?><svg fill="none" viewBox="0 0 600 600" xmlns="http://www.w3.org/2000/svg"><defs><clipPath id="cp-500-500"><rect height="500" width="500" y="0" x="0" /></clipPath><g id="comp_0"><g opacity="0" id="Vector"><animate repeatCount="indefinite" attributeName="opacity" dur="0.33570963541666665s" begin="0s" calcMode="spline" values="0; 0; 1" keyTimes="0; 0.867; 1" keySplines="0.333 0 0.667 1; 0.333 0 0.667 1" fill="freeze" /><g transform="translate(239.329,322.225)"><animateTransform repeatCount="indefinite" type="translate" attributeName="transform" dur="0.224s" begin="0.336s" calcMode="spline" values="239.329 322.225; 239.329 335.225" keyTimes="0; 1" keySplines="0.333 0 0.667 1" fill="freeze" /><g transform="scale(1,1) translate(0,0)"><g id="Vector" transform="matrix(0.417,0,0,0.417,0,0)"><path fill="#222023" fill-opacity="1" d="M-4.715,23.461L4.715,23.461C18.85,23.461,30.318,12.012,30.318,-2.138L30.318,-23.461L-30.318,-23.461L-30.318,-2.138C-30.318,11.994,-18.85,23.461,-4.715,23.461Z" /></g></g></g></g><g id="Vector"><g transform="translate(239.43,316.613)"><g transform="scale(0,0)"><animateTransform repeatCount="indefinite" type="scale" attributeName="transform" dur="0.224s" begin="0s" calcMode="spline" values="0 0; 1 1" keyTimes="0; 1" keySplines="0.333 0 0.667 1" fill="freeze" /><g transform="translate(0,0)"><g id="Vector" transform="matrix(0.417,0,0,0.417,0,0)"><path fill="#bebebe" fill-opacity="1" d="M-29.075,44.678L29.092,44.678C39.738,44.678,48.362,36.055,48.344,25.411L48.344,-44.678L-48.344,-44.678L-48.344,25.411C-48.344,36.055,-39.721,44.678,-29.075,44.678Z" /></g></g></g></g></g><g id="Vector"><g transform="translate(239.296,325.029)"><g transform="scale(0,1)"><animateTransform repeatCount="indefinite" type="scale" attributeName="transform" dur="0.224s" begin="0.224s" calcMode="spline" values="0 1; 1 1" keyTimes="0; 1" keySplines="0.333 0 0.667 1" fill="freeze" /><g transform="translate(0,0)"><g id="Vector" transform="matrix(0.417,0,0,0.417,0,0)"><path fill="#d6d6d6" fill-opacity="1" d="M-48.988,11.646L48.988,11.646C55.429,11.646,60.636,6.44,60.636,0C60.636,-6.44,55.429,-11.646,48.988,-11.646L-48.988,-11.646C-55.429,-11.646,-60.636,-6.44,-60.636,0C-60.636,6.44,-55.429,11.646,-48.988,11.646Z" /></g></g></g></g></g><g id="Vector"><g transform="translate(239.296,310.323)"><g transform="scale(0,1)"><animateTransform repeatCount="indefinite" type="scale" attributeName="transform" dur="0.224s" begin="0.336s" calcMode="spline" values="0 1; 1 1" keyTimes="0; 1" keySplines="0.333 0 0.667 1" fill="freeze" /><g transform="translate(0,0)"><g id="Vector" transform="matrix(0.417,0,0,0.417,0,0)"><path fill="#d6d6d6" fill-opacity="1" d="M-48.988,11.646L48.988,11.646C55.429,11.646,60.636,6.422,60.636,0C60.636,-6.44,55.429,-11.646,48.988,-11.646L-48.988,-11.646C-55.429,-11.646,-60.636,-6.44,-60.636,0C-60.636,6.44,-55.429,11.646,-48.988,11.646Z" /></g></g></g></g></g><g id="big-circle"><g transform="translate(239.458,298.025)"><animateTransform repeatCount="indefinite" type="translate" attributeName="transform" dur="0.224s" begin="0.567s" calcMode="spline" values="239.458 298.025; 239.458 239.525" keyTimes="0; 1" keySplines="0.333 0 0.667 1" fill="freeze" /><g transform="scale(0,0)"><animateTransform repeatCount="indefinite" type="scale" attributeName="transform" dur="0.224s" begin="0.567s" calcMode="spline" values="0 0; 1 1" keyTimes="0; 1" keySplines="0.333 0 0.667 1" fill="freeze" /><g transform="translate(0,0)"><g id="Vector" transform="matrix(0.417,0,0,0.417,0.148,0.406)"><path fill="#f2f2f2" fill-opacity="1" d="M0,-146.859C75.934,-146.859,137.5,-89.972,137.5,-19.794C137.5,22.299,115.349,59.615,81.265,82.745C81.265,82.745,65.646,91.368,63.821,115.089L63.821,132.334C63.821,140.348,56.772,146.859,48.094,146.859L-47.843,146.859C-56.539,146.859,-63.57,140.366,-63.57,132.334L-63.57,115.232C-65.359,91.44,-81.319,82.656,-81.319,82.656C-115.385,59.543,-137.5,22.263,-137.5,-19.794C-137.5,-89.972,-75.934,-146.859,0,-146.859Z" /></g><g id="Rectangle 1" transform="matrix(1,0,0,1,3.352,-6.059)"><rect height="166.932" width="184.621" y="0" x="0" stroke-linejoin="miter" stroke-linecap="butt" stroke-width="0" stroke-opacity="1" stroke="#fedd3e" fill="#fedd3e" fill-opacity="0" /></g></g></g></g></g><g opacity="0" id="small-circle"><animate repeatCount="indefinite" attributeName="opacity" dur="0.21666666666666667s" begin="0.6666666666666666s" calcMode="spline" values="0; 1" keyTimes="0; 1" keySplines="0.333 0 0.667 1" fill="freeze" /><g transform="translate(239.114,236.252)"><g transform="scale(0,0)"><animateTransform repeatCount="indefinite" type="scale" attributeName="transform" dur="0.217s" begin="0.667s" calcMode="spline" values="0 0; 1 1" keyTimes="0; 1" keySplines="0.333 0 0.667 1" fill="freeze" /><g transform="translate(0,0)"><g id="Vector" transform="matrix(0.089,-0.407,0.407,0.089,0,0)"><path fill="#e0e0e0" fill-opacity="1" d="M0,99.336C54.853,99.336,99.32,54.862,99.32,0C99.32,-54.862,54.853,-99.336,0,-99.336C-54.853,-99.336,-99.32,-54.862,-99.32,0C-99.32,54.862,-54.853,99.336,0,99.336Z" /></g></g></g></g></g><g opacity="0" id="Vector"><animate repeatCount="indefinite" attributeName="opacity" dur="0.22379557291666666s" begin="0.9s" calcMode="spline" values="0; 1" keyTimes="0; 1" keySplines="0.333 0 0.667 1" fill="freeze" /><g transform="translate(228.325,266.876) scale(1,1) translate(0,0)"><g id="Vector" transform="matrix(0.417,0,0,0.417,0,0)"><path stroke-linejoin="miter" stroke-linecap="butt" stroke-width="8.259" stroke-opacity="1" stroke="#ffffff" d="M26.167,-32.03L-6.969,-32.12C-17.579,-32.12,-26.167,-40.724,-26.167,-51.314L-26.167,-62.03C-26.167,-72.638,-17.561,-81.225,-6.969,-81.225C3.641,-81.225,12.229,-72.62,12.229,-62.03L12.229,81.225" /></g></g></g><g opacity="0" id="Vector"><animate repeatCount="indefinite" attributeName="opacity" dur="0.22379557291666666s" begin="0.9s" calcMode="spline" values="0; 1" keyTimes="0; 1" keySplines="0.333 0 0.667 1" fill="freeze" /><g transform="translate(249.744,266.876) scale(1,1) translate(0,0)"><g id="Vector" transform="matrix(0.417,0,0,0.417,0,0)"><path stroke-linejoin="miter" stroke-linecap="butt" stroke-width="8.259" stroke-opacity="1" stroke="#ffffff" d="M-27.437,-32.03L8.239,-32.12C18.849,-32.12,27.437,-40.724,27.437,-51.314L27.437,-62.03C27.437,-72.638,18.831,-81.225,8.239,-81.225C-2.371,-81.225,-10.959,-72.62,-10.959,-62.03L-10.959,81.225" /></g></g></g><g opacity="0" id="Vector 2"><animate repeatCount="indefinite" attributeName="opacity" dur="0.48333333333333334s" begin="1.5166666666666666s" calcMode="spline" values="0; 1; 1; 0" keyTimes="0; 0.103; 0.897; 1" keySplines="0.333 0 0.667 1; 0.333 0 0.667 1; 0.333 0 0.667 1" fill="freeze" /><g transform="translate(228.325,285.876)"><animateTransform repeatCount="indefinite" type="translate" attributeName="transform" dur="0.2s" begin="1.367s" calcMode="spline" values="228.325 285.876; 228.325 266.876" keyTimes="0; 1" keySplines="0.333 0 0.667 1" fill="freeze" /><g transform="scale(1,1) translate(0,0)"><g id="Vector" transform="matrix(0.417,0,0,0.417,0,0)"><path stroke-linejoin="miter" stroke-linecap="butt" stroke-width="8.259" stroke-opacity="1" stroke="#fedd3e" d="M26.167,-32.03L-6.969,-32.12C-17.579,-32.12,-26.167,-40.724,-26.167,-51.314L-26.167,-62.03C-26.167,-72.638,-17.561,-81.225,-6.969,-81.225C3.641,-81.225,12.229,-72.62,12.229,-62.03L12.229,81.225" /></g></g></g></g><g opacity="0" id="Vector 3"><animate repeatCount="indefinite" attributeName="opacity" dur="0.4666666666666667s" begin="1.5333333333333334s" calcMode="spline" values="0; 1; 1; 0" keyTimes="0; 0.071; 0.893; 1" keySplines="0.333 0 0.667 1; 0.333 0 0.667 1; 0.333 0 0.667 1" fill="freeze" /><g transform="translate(249.744,285.876)"><animateTransform repeatCount="indefinite" type="translate" attributeName="transform" dur="0.2s" begin="1.367s" calcMode="spline" values="249.744 285.876; 249.744 266.876" keyTimes="0; 1" keySplines="0.333 0 0.667 1" fill="freeze" /><g transform="scale(1,1) translate(0,0)"><g id="Vector" transform="matrix(0.417,0,0,0.417,0,0)"><path stroke-linejoin="miter" stroke-linecap="butt" stroke-width="8.259" stroke-opacity="1" stroke="#fedd3e" d="M-27.437,-32.03L8.239,-32.12C18.849,-32.12,27.437,-40.724,27.437,-51.314L27.437,-62.03C27.437,-72.638,18.831,-81.225,8.239,-81.225C-2.371,-81.225,-10.959,-72.62,-10.959,-62.03L-10.959,81.225" /></g></g></g></g><g opacity="0" id="Vector"><animate repeatCount="indefinite" attributeName="opacity" dur="0.22379557291666666s" begin="0.9s" calcMode="spline" values="0; 1" keyTimes="0; 1" keySplines="0.333 0 0.667 1" fill="freeze" /><g transform="translate(212.212,200.533) scale(1,1) translate(0,0)"><g id="Vector" transform="matrix(0.417,0,0,0.417,0,0)"><path stroke-linejoin="round" stroke-linecap="round" stroke-width="26.766" stroke-opacity="0.7" stroke="#ffffff" d="M16.55,-13.596C3.775,-6.816,-7.479,2.469,-16.55,13.596" /></g></g></g><g opacity="0" id="Vector"><animate repeatCount="indefinite" attributeName="opacity" dur="0.22379557291666666s" begin="0.9s" calcMode="spline" values="0; 1" keyTimes="0; 1" keySplines="0.333 0 0.667 1" fill="freeze" /><g transform="translate(195.707,239.127) scale(1,1) translate(0,0)"><g id="Vector" transform="matrix(0.417,0,0,0.417,0,0)"><path stroke-linejoin="round" stroke-linecap="round" stroke-width="20.146" stroke-opacity="0.7" stroke="#ffffff" d="M-1.127,-11.037C-1.127,-3.47,-0.358,3.917,1.127,11.037" /></g></g></g><g opacity="0" id="Vector"><animate repeatCount="indefinite" attributeName="opacity" dur="0.22379557291666666s" begin="0.9s" calcMode="spline" values="0; 1" keyTimes="0; 1" keySplines="0.333 0 0.667 1" fill="freeze" /><g transform="translate(284.171,240.596) scale(1,1) translate(0,0)"><g id="Vector" transform="matrix(0.417,0,0,0.417,0,0)"><path stroke-linejoin="round" stroke-linecap="round" stroke-width="20.146" stroke-opacity="0.7" stroke="#ffffff" d="M-1.995,14.562C0.599,5.296,1.995,-4.473,1.995,-14.562" /></g></g></g><g opacity="0" visibility="hidden" id="Rectangle 688"><animate repeatCount="indefinite" begin="1.517s" calcMode="discrete" fill="freeze" dur="3.483s" values="visible; visible" keyTimes="0; 1" attributeName="visibility" /><animate repeatCount="indefinite" attributeName="opacity" dur="0.08333333333333333s" begin="2.5166666666666666s" calcMode="spline" values="0; 1" keyTimes="0; 1" keySplines="0.167 0 0.833 1" fill="freeze" /><g transform="translate(181.74,166.037)"><animateTransform repeatCount="indefinite" type="translate" attributeName="transform" dur="0.083s" begin="2.517s" calcMode="spline" values="181.74 166.037; 181.74 166.037" keyTimes="0; 1" keySplines="0 0 1 1" fill="freeze" /><g transform="scale(0.8,0.8)"><animateTransform repeatCount="indefinite" type="scale" attributeName="transform" dur="0.083s" begin="2.517s" calcMode="spline" values="0.8 0.8; 0.8 0.8" keyTimes="0; 1" keySplines="0.167 0 0.833 1" fill="freeze" /><g transform="translate(0,0)"><g id="Rectangle 688" transform="matrix(0.707,0.708,-0.708,0.707,0,0)"><rect ry="126" rx="126" height="9.012" width="27.037" y="0" x="0" fill="#0fb4d4" fill-opacity="1" /></g></g></g></g></g><g opacity="0" visibility="hidden" id="Rectangle 687"><animate repeatCount="indefinite" begin="1.517s" calcMode="discrete" fill="freeze" dur="3.483s" values="visible; visible" keyTimes="0; 1" attributeName="visibility" /><animate repeatCount="indefinite" attributeName="opacity" dur="0.08333333333333333s" begin="2.5166666666666666s" calcMode="spline" values="0; 1" keyTimes="0; 1" keySplines="0.167 0 0.833 1" fill="freeze" /><g transform="translate(217.484,151.687)"><animateTransform repeatCount="indefinite" type="translate" attributeName="transform" dur="0.083s" begin="2.517s" calcMode="spline" values="217.484 151.687; 217.484 151.687" keyTimes="0; 1" keySplines="0 0 1 1" fill="freeze" /><g transform="scale(0.8,0.8)"><animateTransform repeatCount="indefinite" type="scale" attributeName="transform" dur="0.083s" begin="2.517s" calcMode="spline" values="0.8 0.8; 0.8 0.8" keyTimes="0; 1" keySplines="0.167 0 0.833 1" fill="freeze" /><g transform="translate(0,0)"><g id="Rectangle 687" transform="matrix(0.223,0.975,-0.975,0.223,0,0)"><rect ry="126" rx="126" height="9.012" width="27.037" y="0" x="0" fill="#0fb4d4" fill-opacity="1" /></g></g></g></g></g><g opacity="0" visibility="hidden" id="Rectangle 685"><animate repeatCount="indefinite" begin="1.517s" calcMode="discrete" fill="freeze" dur="3.483s" values="visible; visible" keyTimes="0; 1" attributeName="visibility" /><animate repeatCount="indefinite" attributeName="opacity" dur="0.08333333333333333s" begin="2.5166666666666666s" calcMode="spline" values="0; 1" keyTimes="0; 1" keySplines="0.167 0 0.833 1" fill="freeze" /><g transform="translate(293.744,168.474)"><animateTransform repeatCount="indefinite" type="translate" attributeName="transform" dur="0.083s" begin="2.517s" calcMode="spline" values="293.744 168.474; 293.744 168.474" keyTimes="0; 1" keySplines="0 0 1 1" fill="freeze" /><g transform="scale(0.8,0.8)"><animateTransform repeatCount="indefinite" type="scale" attributeName="transform" dur="0.083s" begin="2.517s" calcMode="spline" values="0.8 0.8; 0.8 0.8" keyTimes="0; 1" keySplines="0.167 0 0.833 1" fill="freeze" /><g transform="translate(0,0)"><g id="Rectangle 685" transform="matrix(0.739,-0.674,0.674,0.739,0,0)"><rect ry="126" rx="126" height="9.012" width="27.037" y="0" x="0" fill="#0fb4d4" fill-opacity="1" /></g></g></g></g></g><g opacity="0" visibility="hidden" id="Rectangle 686"><animate repeatCount="indefinite" begin="1.517s" calcMode="discrete" fill="freeze" dur="3.483s" values="visible; visible" keyTimes="0; 1" attributeName="visibility" /><animate repeatCount="indefinite" attributeName="opacity" dur="0.08333333333333333s" begin="2.5166666666666666s" calcMode="spline" values="0; 1" keyTimes="0; 1" keySplines="0.167 0 0.833 1" fill="freeze" /><g transform="translate(258.708,152.736)"><animateTransform repeatCount="indefinite" type="translate" attributeName="transform" dur="0.083s" begin="2.517s" calcMode="spline" values="258.708 152.736; 258.708 152.736" keyTimes="0; 1" keySplines="0 0 1 1" fill="freeze" /><g transform="scale(0.8,0.8)"><animateTransform repeatCount="indefinite" type="scale" attributeName="transform" dur="0.083s" begin="2.517s" calcMode="spline" values="0.8 0.8; 0.8 0.8" keyTimes="0; 1" keySplines="0.167 0 0.833 1" fill="freeze" /><g transform="translate(0,0)"><g id="Rectangle 686" transform="matrix(0.275,-0.961,0.961,0.275,0,0)"><rect ry="126" rx="126" height="9.012" width="27.037" y="0" x="0" fill="#0fb4d4" fill-opacity="1" /></g></g></g></g></g></g></defs><g transform="matrix(1.86,0,0,1.86,-150,-154)" id="final-Idea"><use clip-path="url(#cp-500-500)" height="500" width="500" y="0" x="0" xlink:href="#comp_0" href="#comp_0" /></g></svg>