<svg xmlns="http://www.w3.org/2000/svg" xmlns:xlink="http://www.w3.org/1999/xlink" version="1.1" x="0px" y="0px" viewBox="0 25 100 55" enable-background="new 0 0 100 100" xml:space="preserve"><g><g><path fill="none" d="M74.821,44.862c0.019-0.11,0.063-0.216,0.15-0.299c4.214-3.967,8.652-7.751,13.242-11.31    c-5.257,3.05-10.375,6.374-15.274,9.936c-0.145,1.78-0.218,3.579-0.225,5.372c0.395-0.728,0.803-1.436,1.206-2.128    C74.219,45.916,74.521,45.396,74.821,44.862C74.82,44.862,74.821,44.862,74.821,44.862z"/><path fill="none" d="M67.863,38.422c1.796,1.341,2.883,2.197,4.624,3.789c5.701-4.134,11.692-7.951,17.855-11.386    C82.76,32.891,75.076,35.161,67.863,38.422z"/><path fill="none" d="M74.834,46.964c-0.145,0.25-0.287,0.495-0.429,0.741l1.397-1.412c-0.126-0.116-0.256-0.23-0.385-0.345    C75.223,46.288,75.029,46.63,74.834,46.964z"/><path fill="none" d="M80.298,49.558l11.989-18.063c-5.676,4.188-11.142,8.738-16.283,13.555    C77.732,46.575,79.227,48.248,80.298,49.558z"/><path fill="#b85042" d="M43.101,60.948c-0.001,0.001-0.002,0.001-0.002,0.001c-0.617,0.44-1.182,0.833-1.726,1.2    c-0.003,0.002-0.005,0.003-0.007,0.005c-0.242,0.164-0.306,0.493-0.143,0.735c0.102,0.151,0.269,0.233,0.439,0.233    c0.102,0,0.205-0.029,0.296-0.091c0.553-0.373,1.127-0.772,1.755-1.219c0.001-0.001,0.002-0.001,0.003-0.002    c0.238-0.17,0.294-0.5,0.124-0.738C43.67,60.835,43.339,60.779,43.101,60.948z"/><path fill="#b85042" d="M46.527,58.442l-1.71,1.263c-0.141,0.104-0.216,0.265-0.216,0.428c0,0.109,0.034,0.218,0.103,0.312    c0.104,0.141,0.264,0.216,0.427,0.216c0.109,0,0.219-0.033,0.313-0.103l1.712-1.264c0.141-0.104,0.214-0.264,0.214-0.427    c0-0.109-0.034-0.219-0.104-0.314C47.094,58.319,46.763,58.269,46.527,58.442z"/><path fill="#b85042" d="M39.599,63.304c-0.158,0.099-0.301,0.187-0.437,0.269c-0.461,0.28-0.922,0.55-1.372,0.8    c-0.173,0.097-0.271,0.277-0.271,0.462c0,0.087,0.021,0.176,0.067,0.258c0.097,0.174,0.277,0.272,0.463,0.272    c0.087,0,0.176-0.021,0.257-0.067c0.461-0.257,0.934-0.533,1.407-0.821c0.139-0.085,0.285-0.175,0.447-0.276    c0.161-0.101,0.249-0.273,0.249-0.45c0-0.096-0.026-0.193-0.08-0.28C40.173,63.224,39.846,63.148,39.599,63.304z"/><path fill="#b85042" d="M49.982,55.938c-0.306,0.215-0.553,0.39-0.777,0.55c-0.292,0.207-0.605,0.434-0.96,0.692    c-0.143,0.103-0.218,0.264-0.218,0.428c0,0.108,0.033,0.218,0.101,0.312c0.103,0.142,0.265,0.218,0.429,0.218    c0.108,0,0.217-0.033,0.311-0.101c0.01-0.008,0.021-0.016,0.032-0.023c0.007-0.005,0.014-0.011,0.022-0.016    c0.002-0.001,0.004-0.002,0.005-0.004c0.003-0.002,0.005-0.004,0.007-0.005c0.025-0.018,0.05-0.036,0.074-0.054    c0.001,0,0.002-0.001,0.003-0.002c0.294-0.213,0.559-0.405,0.809-0.582c0.001,0,0.001,0,0.001-0.001    c0.222-0.158,0.466-0.331,0.766-0.542l0.005-0.003c0.146-0.103,0.225-0.267,0.225-0.434c0-0.105-0.031-0.211-0.096-0.304    C50.553,55.827,50.221,55.77,49.982,55.938z"/><path fill="#b85042" d="M32.058,66.891l-0.003,0.001c-0.675,0.21-1.348,0.388-2.001,0.527c-0.002,0-0.003,0.001-0.005,0.001c0,0,0,0-0.001,0    c-0.286,0.061-0.468,0.342-0.407,0.628c0.053,0.249,0.273,0.419,0.517,0.419c0.037,0,0.073-0.004,0.111-0.012    c0.688-0.147,1.393-0.332,2.094-0.551c0.004-0.001,0.007-0.002,0.01-0.003c0.279-0.087,0.435-0.384,0.348-0.663    C32.634,66.96,32.338,66.804,32.058,66.891z"/><path fill="#b85042" d="M28.014,67.749l-0.095,0.01c-0.595,0.061-1.194,0.092-1.782,0.092l-0.196-0.001h-0.004c-0.291,0-0.527,0.234-0.529,0.525    v0.003c-0.001,0.291,0.234,0.528,0.525,0.53l0.205,0.001c0.629,0,1.265-0.033,1.892-0.098l0.077-0.008    c0.276-0.024,0.483-0.255,0.483-0.526c0-0.016-0.001-0.032-0.002-0.048C28.562,67.939,28.308,67.723,28.014,67.749z"/><path fill="#b85042" d="M35.932,65.342c-0.637,0.308-1.276,0.592-1.9,0.843c-0.004,0.002-0.007,0.003-0.011,0.004    c-0.271,0.109-0.403,0.417-0.294,0.689c0.083,0.207,0.282,0.332,0.491,0.332c0.066,0,0.133-0.012,0.198-0.039    c0.648-0.26,1.313-0.555,1.977-0.877c0.189-0.091,0.299-0.28,0.299-0.476c0-0.078-0.017-0.157-0.053-0.231    C36.513,65.325,36.198,65.215,35.932,65.342z"/><path fill="#b85042" d="M68.561,45.437c-0.002,0.001-0.004,0.002-0.006,0.003c-0.636,0.282-1.288,0.579-1.939,0.884c-0.001,0-0.001,0-0.001,0    c-0.001,0-0.001,0-0.001,0c-0.265,0.124-0.379,0.439-0.255,0.704c0.09,0.192,0.281,0.305,0.48,0.305    c0.075,0,0.151-0.016,0.223-0.05c0.647-0.302,1.295-0.597,1.927-0.878c0.267-0.119,0.388-0.431,0.269-0.698    C69.141,45.439,68.829,45.318,68.561,45.437z"/><path fill="#b85042" d="M64.688,47.246c-0.648,0.318-1.29,0.642-1.909,0.961c-0.182,0.094-0.287,0.279-0.287,0.471    c0,0.082,0.019,0.165,0.059,0.242c0.094,0.182,0.279,0.287,0.471,0.287c0.082,0,0.164-0.019,0.242-0.059    c0.613-0.316,1.248-0.635,1.889-0.95l0.003-0.002c0,0,0,0,0,0c0.263-0.129,0.37-0.446,0.241-0.709    C65.268,47.226,64.953,47.117,64.688,47.246z"/><path fill="#b85042" d="M94.9,28.854c-0.128-0.178-0.354-0.259-0.567-0.202c-9.266,2.485-18.847,5.054-27.726,9.181    c-0.169,0.079-0.284,0.24-0.303,0.426c-0.019,0.186,0.061,0.368,0.211,0.479c2.323,1.727,3.371,2.521,5.369,4.355    c-0.205,2.52-0.276,5.078-0.209,7.604c0.006,0.212,0.137,0.4,0.334,0.478c0.064,0.025,0.129,0.037,0.195,0.037    c0.139,0,0.275-0.055,0.376-0.157l3.989-4.031c1.377,1.356,2.54,2.728,3.354,3.758c0.1,0.127,0.253,0.201,0.415,0.201    c0.007,0,0.014,0,0.022-0.001c0.17-0.007,0.326-0.095,0.419-0.236l14.132-21.292C95.034,29.272,95.029,29.032,94.9,28.854z     M72.487,42.211c-1.741-1.592-2.828-2.448-4.624-3.789c7.213-3.261,14.896-5.53,22.479-7.597    C84.179,34.26,78.188,38.077,72.487,42.211z M72.713,48.56c0.007-1.793,0.08-3.592,0.225-5.372    c4.9-3.561,10.017-6.886,15.274-9.936c-4.59,3.559-9.028,7.344-13.242,11.31c-0.087,0.082-0.132,0.189-0.15,0.299    c0,0-0.001,0-0.001,0.001c-0.299,0.534-0.601,1.054-0.901,1.57C73.517,47.124,73.109,47.832,72.713,48.56z M74.405,47.705    c0.142-0.246,0.284-0.491,0.429-0.741c0.194-0.334,0.389-0.677,0.584-1.017c0.129,0.115,0.258,0.229,0.385,0.345L74.405,47.705z     M80.298,49.558c-1.07-1.31-2.565-2.984-4.295-4.508c5.142-4.817,10.607-9.367,16.283-13.555L80.298,49.558z"/><path fill="#b85042" d="M53.53,53.553c-0.605,0.391-1.205,0.785-1.782,1.173c-0.002,0.001-0.003,0.002-0.004,0.002c0,0,0,0-0.001,0    c-0.242,0.163-0.307,0.492-0.144,0.735c0.102,0.152,0.269,0.234,0.44,0.234c0.101,0,0.204-0.029,0.295-0.09    c0.573-0.385,1.168-0.777,1.769-1.165c0.157-0.101,0.242-0.272,0.242-0.445c0-0.098-0.027-0.198-0.085-0.287    C54.103,53.465,53.775,53.394,53.53,53.553z"/><path fill="#b85042" d="M57.168,51.307c-0.617,0.365-1.233,0.737-1.83,1.106c-0.162,0.1-0.252,0.274-0.251,0.452c0,0.095,0.026,0.191,0.079,0.277    c0.1,0.162,0.273,0.251,0.451,0.251c0.095,0,0.191-0.026,0.278-0.079c0.591-0.365,1.201-0.734,1.812-1.095    c0.167-0.099,0.26-0.275,0.26-0.456c0-0.092-0.024-0.185-0.073-0.269C57.744,51.242,57.421,51.159,57.168,51.307z"/><path fill="#b85042" d="M60.889,49.204c-0.634,0.343-1.264,0.691-1.871,1.034c-0.172,0.097-0.269,0.276-0.269,0.461    c0,0.088,0.022,0.178,0.068,0.261c0.098,0.172,0.277,0.269,0.462,0.269c0.088,0,0.178-0.022,0.26-0.068    c0.601-0.34,1.224-0.684,1.853-1.024c0.177-0.096,0.278-0.278,0.278-0.467c0-0.085-0.021-0.171-0.064-0.251    C61.468,49.161,61.147,49.065,60.889,49.204z"/><path fill="#b85042" d="M21.839,57.346c0.246-0.752,0.379-1.505,0.396-2.24v-0.012c0-0.287-0.229-0.523-0.517-0.529c-0.004,0-0.008,0-0.012,0    c-0.287,0-0.523,0.229-0.529,0.517c-0.014,0.63-0.13,1.281-0.343,1.934c-0.018,0.055-0.026,0.11-0.026,0.165    c0,0.223,0.142,0.43,0.365,0.503c0.054,0.018,0.11,0.027,0.164,0.027C21.559,57.711,21.766,57.569,21.839,57.346z"/><path fill="#b85042" d="M13.417,59.288c-0.075-0.283-0.368-0.45-0.648-0.375c-0.237,0.063-0.393,0.277-0.393,0.511    c0,0.045,0.006,0.091,0.018,0.137c0,0.003,0.002,0.005,0.002,0.008c0.189,0.705,0.449,1.402,0.773,2.07    c0.001,0.002,0.002,0.004,0.003,0.006c0.001,0,0.001,0,0.001,0c0.092,0.189,0.28,0.298,0.477,0.298    c0.078,0,0.156-0.017,0.231-0.053c0.263-0.127,0.373-0.444,0.246-0.707c-0.297-0.612-0.534-1.247-0.706-1.888    C13.418,59.293,13.418,59.291,13.417,59.288z"/><path fill="#b85042" d="M13.096,53.663c0.073,0.035,0.15,0.051,0.226,0.051c0.199,0,0.388-0.112,0.479-0.303c0.287-0.605,0.665-1.159,1.095-1.603    c0.001-0.001,0.002-0.002,0.003-0.003v0c0.204-0.21,0.199-0.545-0.011-0.749c-0.209-0.203-0.544-0.199-0.749,0.011v0    c-0.002,0.002-0.004,0.004-0.006,0.006c-0.507,0.523-0.952,1.173-1.287,1.88c-0.001,0.001-0.001,0.003-0.002,0.004    c-0.035,0.073-0.051,0.151-0.051,0.227C12.793,53.382,12.905,53.572,13.096,53.663z"/><path fill="#b85042" d="M7.161,69.391c-0.002,0.001-0.005,0.002-0.007,0.004c-0.613,0.336-1.238,0.661-1.857,0.967    c-0.001,0-0.002,0.001-0.003,0.001v0c-0.262,0.129-0.37,0.447-0.24,0.709c0.092,0.187,0.28,0.295,0.475,0.295    c0.079,0,0.158-0.018,0.234-0.055c0.631-0.311,1.273-0.645,1.907-0.993c0.256-0.141,0.351-0.462,0.21-0.719    C7.74,69.344,7.418,69.25,7.161,69.391z"/><path fill="#b85042" d="M16.279,50.809c0.057,0,0.116-0.01,0.173-0.029c0.263-0.091,0.535-0.146,0.811-0.164c0.301-0.021,0.641,0.011,0.969,0.098    c0.001,0,0.002,0.001,0.003,0.001c0,0,0.001,0,0.001,0c0.284,0.076,0.572-0.091,0.648-0.374c0.076-0.282-0.092-0.572-0.374-0.648    c-0.433-0.117-0.882-0.163-1.318-0.133c-0.368,0.024-0.733,0.098-1.086,0.22c-0.219,0.076-0.356,0.281-0.356,0.501    c0,0.057,0.009,0.116,0.029,0.173C15.854,50.671,16.059,50.809,16.279,50.809z"/><path fill="#b85042" d="M19.834,51.636C19.834,51.636,19.834,51.636,19.834,51.636c0.464,0.44,0.823,0.978,1.039,1.556    c0.08,0.213,0.281,0.344,0.496,0.344c0.061,0,0.124-0.011,0.185-0.034c0.213-0.079,0.344-0.282,0.344-0.496    c0-0.062-0.011-0.124-0.034-0.185c-0.272-0.729-0.722-1.405-1.301-1.954c-0.212-0.201-0.548-0.192-0.749,0.02    C19.613,51.099,19.622,51.434,19.834,51.636L19.834,51.636z"/><path fill="#b85042" d="M10.759,67.209c-0.589,0.393-1.186,0.773-1.775,1.13c-0.164,0.099-0.255,0.274-0.255,0.453    c0,0.094,0.024,0.189,0.077,0.275c0.1,0.164,0.275,0.255,0.453,0.255c0.094,0,0.188-0.025,0.274-0.077    c0.602-0.365,1.212-0.753,1.814-1.154c0.153-0.102,0.236-0.27,0.236-0.441c0-0.101-0.029-0.203-0.089-0.293    C11.33,67.113,11,67.046,10.759,67.209z"/><path fill="#b85042" d="M12.598,57.858c0.292-0.016,0.515-0.266,0.499-0.557c-0.009-0.162-0.013-0.33-0.013-0.499v-0.006    c0-0.502,0.043-1.003,0.129-1.49c0-0.001,0-0.002,0-0.003c0,0,0,0,0-0.001c0.051-0.288-0.141-0.562-0.429-0.613    c-0.29-0.05-0.562,0.141-0.613,0.429c-0.097,0.546-0.146,1.11-0.146,1.678v0.007c0,0.187,0.005,0.374,0.015,0.554v0.002h0.001    v0.002c0.016,0.281,0.249,0.499,0.528,0.499C12.578,57.858,12.588,57.858,12.598,57.858z"/><path fill="#b85042" d="M19.938,66.618c-0.633-0.275-1.239-0.596-1.803-0.956c-0.247-0.157-0.574-0.086-0.731,0.161    c-0.056,0.088-0.083,0.186-0.083,0.284c-0.001,0.175,0.086,0.346,0.245,0.447c0.611,0.39,1.267,0.738,1.951,1.035    c0.069,0.03,0.14,0.044,0.21,0.044c0.205,0,0.4-0.119,0.486-0.319c0.03-0.068,0.044-0.14,0.044-0.21    C20.256,66.899,20.137,66.704,19.938,66.618z"/><path fill="#b85042" d="M20.707,58.649c-0.249-0.155-0.575-0.078-0.729,0.171c-0.334,0.539-0.734,1.074-1.222,1.634    c-0.087,0.1-0.13,0.224-0.13,0.348c0,0.148,0.062,0.294,0.182,0.399c0.1,0.087,0.224,0.13,0.347,0.13    c0.148,0,0.295-0.062,0.4-0.182c0.525-0.603,0.957-1.182,1.322-1.77c0.054-0.087,0.08-0.183,0.08-0.278    C20.958,58.923,20.869,58.75,20.707,58.649z"/><path fill="#b85042" d="M16.336,64.249c0.044-0.021,0.086-0.048,0.125-0.081c0.45-0.395,0.903-0.806,1.343-1.222l0.244-0.232    c0.108-0.104,0.162-0.243,0.162-0.382c0-0.132-0.049-0.264-0.148-0.366c-0.203-0.211-0.538-0.217-0.749-0.015l-0.236,0.225    c0,0-0.001,0-0.001,0.001c-0.428,0.403-0.865,0.802-1.302,1.185c-0.004,0.003-0.008,0.006-0.011,0.01    c-0.048,0.042-0.087,0.091-0.116,0.144c-0.164-0.193-0.323-0.392-0.474-0.597c-0.174-0.235-0.505-0.285-0.741-0.111    c-0.14,0.104-0.214,0.264-0.214,0.426c0,0.109,0.034,0.219,0.103,0.314c0.445,0.602,0.944,1.159,1.484,1.657    c0.102,0.094,0.231,0.14,0.359,0.14c0.143,0,0.285-0.057,0.389-0.171c0.094-0.102,0.14-0.23,0.14-0.358    c0-0.143-0.057-0.286-0.171-0.39C16.46,64.368,16.398,64.309,16.336,64.249z"/><path fill="#b85042" d="M14.152,64.722c-0.548,0.439-1.11,0.87-1.67,1.281c-0.141,0.104-0.216,0.264-0.216,0.427c0,0.109,0.033,0.218,0.102,0.313    c0.104,0.141,0.265,0.216,0.428,0.216c0.109,0,0.218-0.033,0.313-0.103c0.572-0.42,1.146-0.86,1.706-1.307    c0.131-0.105,0.199-0.258,0.199-0.414c0-0.116-0.038-0.233-0.116-0.331C14.714,64.577,14.381,64.539,14.152,64.722z"/><path fill="#b85042" d="M23.887,67.701c-0.685-0.092-1.363-0.229-2.015-0.406c-0.281-0.076-0.573,0.09-0.65,0.372    c-0.012,0.046-0.019,0.093-0.019,0.139c-0.001,0.233,0.155,0.447,0.39,0.511c0.697,0.19,1.421,0.336,2.152,0.434    c0.024,0.003,0.048,0.005,0.071,0.005c0.261,0,0.489-0.193,0.524-0.459c0.003-0.024,0.005-0.048,0.005-0.071    C24.346,67.964,24.153,67.737,23.887,67.701z"/></g></g></svg>